<?xml version="1.0" standalone="no"?>
<!DOCTYPE svg PUBLIC "-//W3C//DTD SVG 20010904//EN"
 "http://www.w3.org/TR/2001/REC-SVG-20010904/DTD/svg10.dtd">
<svg version="1.0" xmlns="http://www.w3.org/2000/svg"
 width="512.000000pt" height="512.000000pt" viewBox="0 0 512.000000 512.000000"
 preserveAspectRatio="xMidYMid meet">
<metadata>
Created by potrace 1.11, written by Peter Selinger 2001-2013
</metadata>
<g transform="translate(0.000000,512.000000) scale(0.100000,-0.100000)"
fill="#000000" stroke="none">
<path d="M2379 5116 c-2 -2 -35 -6 -74 -10 -133 -12 -158 -16 -170 -26 -7 -5
-14 -7 -18 -4 -4 5 -46 -2 -132 -22 -5 -1 -21 -5 -35 -7 -14 -3 -59 -16 -100
-28 -41 -12 -81 -22 -87 -22 -7 0 -13 -4 -13 -7 0 -4 -14 -10 -31 -14 -17 -3
-45 -12 -62 -20 -33 -14 -70 -28 -74 -27 -2 1 -29 -12 -60 -28 -32 -15 -89
-43 -126 -62 -38 -18 -71 -37 -73 -41 -3 -5 -10 -6 -15 -3 -5 4 -9 1 -9 -4 0
-6 -7 -11 -15 -11 -8 0 -15 -3 -15 -8 0 -4 -15 -13 -32 -21 -18 -7 -38 -19
-43 -25 -6 -6 -26 -20 -45 -30 -19 -11 -39 -24 -45 -28 -5 -4 -24 -19 -41 -33
-18 -14 -35 -25 -39 -25 -4 0 -18 -11 -31 -26 -13 -14 -24 -22 -24 -19 0 4 -6
0 -14 -7 -7 -7 -29 -26 -49 -43 -45 -37 -237 -223 -237 -229 0 -2 -15 -20 -33
-38 -72 -76 -219 -273 -210 -282 4 -3 2 -6 -3 -6 -5 0 -18 -16 -28 -35 -11
-19 -23 -35 -28 -35 -4 0 -8 -9 -8 -19 0 -11 -4 -21 -9 -23 -8 -3 -141 -259
-141 -271 0 -2 -8 -22 -17 -43 -9 -22 -17 -41 -18 -44 -1 -3 -5 -12 -8 -20
-20 -48 -47 -127 -47 -137 0 -6 -5 -24 -12 -40 -6 -15 -12 -35 -12 -43 -1 -8
-4 -19 -7 -25 -4 -5 -10 -23 -13 -40 -3 -16 -9 -41 -12 -55 -3 -14 -7 -36 -10
-50 -2 -14 -7 -38 -11 -55 -4 -16 -8 -39 -9 -50 -7 -53 -14 -88 -18 -93 -3 -2
-1 -14 5 -25 6 -10 7 -17 2 -14 -6 4 -11 -15 -13 -41 -7 -87 -4 -457 3 -507 4
-27 9 -66 12 -85 3 -19 6 -50 7 -67 1 -18 5 -33 9 -33 4 0 6 -13 5 -30 -1 -16
1 -30 6 -30 4 0 7 -3 6 -7 -6 -24 51 -245 66 -255 6 -4 8 -8 4 -8 -4 0 -3 -12
3 -27 6 -16 12 -35 14 -43 10 -46 126 -304 175 -390 89 -156 214 -333 319
-454 59 -66 277 -276 288 -276 1 0 12 -8 22 -18 48 -43 73 -62 173 -130 58
-40 111 -72 117 -72 6 0 11 -5 11 -11 0 -5 4 -8 9 -5 5 4 11 2 13 -3 4 -12
262 -141 282 -141 9 0 16 -4 16 -10 0 -5 8 -10 18 -10 10 0 23 -5 30 -12 7 -7
12 -9 12 -6 0 4 21 -2 46 -13 25 -11 57 -23 72 -25 14 -3 30 -8 36 -12 6 -3
16 -8 21 -9 6 -1 49 -13 98 -27 48 -13 87 -22 87 -20 0 2 11 -1 25 -6 13 -5
40 -10 60 -12 19 -1 35 -6 35 -10 0 -4 14 -6 30 -4 17 2 30 1 30 -3 0 -3 12
-7 28 -7 15 -1 56 -5 92 -10 85 -11 436 -11 525 -1 39 5 82 9 98 10 15 0 27 3
27 7 0 3 15 5 33 5 17 -1 37 1 42 4 6 3 15 6 20 7 63 10 85 15 113 23 18 5 35
10 37 10 3 1 6 1 8 2 1 0 13 3 27 5 48 9 321 106 380 135 32 16 64 29 70 29 6
0 16 5 23 11 10 9 85 51 237 135 19 10 39 25 43 31 4 7 12 13 17 13 6 0 18 6
27 14 10 8 52 40 93 71 123 92 325 277 315 287 -3 3 6 11 20 18 14 7 25 16 25
20 0 4 12 20 26 36 14 16 33 38 43 49 10 11 46 58 79 105 34 47 67 90 72 97 6
7 10 17 10 23 0 5 4 10 9 10 5 0 14 14 21 31 7 17 18 36 24 42 25 26 170 318
178 359 2 7 5 15 8 18 3 3 16 37 28 75 13 39 26 77 29 85 8 20 9 23 33 110 21
80 32 127 33 148 0 6 3 12 6 12 4 0 7 15 8 33 1 17 4 43 7 57 36 151 43 638
10 780 -3 14 -7 39 -9 55 -2 17 -6 41 -9 55 -3 14 -8 39 -10 55 -3 17 -14 66
-26 110 -12 44 -23 85 -25 90 -1 6 -5 17 -8 25 -3 8 -11 33 -18 55 -33 111
-183 446 -208 465 -3 3 -17 26 -30 52 -13 26 -32 56 -43 68 -10 11 -16 20 -13
20 7 0 -75 112 -89 122 -6 4 -7 8 -2 8 5 0 -1 8 -12 19 -12 10 -22 21 -22 25
0 3 -8 15 -17 25 -10 11 -36 41 -58 66 -43 51 -192 202 -245 249 -18 16 -76
62 -129 102 -53 40 -103 79 -111 86 -8 7 -26 19 -40 25 -28 14 -62 35 -70 43
-13 13 -109 65 -220 120 -36 17 -78 39 -95 48 -16 9 -30 14 -30 12 0 -2 -16 4
-35 13 -19 8 -64 25 -100 37 -36 12 -74 26 -85 31 -24 10 -246 66 -295 74 -19
3 -46 8 -60 10 -30 6 -81 14 -135 21 -47 5 -461 14 -466 10z"/>
</g>
</svg>
