<?xml version="1.0" standalone="no"?>
<!DOCTYPE svg PUBLIC "-//W3C//DTD SVG 20010904//EN"
 "http://www.w3.org/TR/2001/REC-SVG-20010904/DTD/svg10.dtd">
<svg version="1.0" xmlns="http://www.w3.org/2000/svg"
 width="512.000000pt" height="512.000000pt" viewBox="0 0 512.000000 512.000000"
 preserveAspectRatio="xMidYMid meet">
<metadata>
Created by potrace 1.11, written by Peter Selinger 2001-2013
</metadata>
<g transform="translate(0.000000,512.000000) scale(0.100000,-0.100000)"
fill="#000000" stroke="none">
<path d="M366 5109 c-103 -17 -167 -49 -237 -118 -71 -72 -101 -133 -119 -246
-13 -82 -13 -4288 0 -4370 18 -113 48 -174 119 -246 72 -71 133 -101 246 -119
82 -13 4288 -13 4370 0 113 18 174 48 246 119 71 72 101 133 119 246 13 82 13
4288 0 4370 -18 113 -48 174 -119 246 -72 71 -133 101 -246 119 -74 12 -4307
11 -4379 -1z m1241 -1157 c10 -6 13 -123 15 -508 l3 -499 77 -3 c85 -3 80 -8
97 83 6 28 38 183 71 345 34 162 72 351 86 420 13 69 29 135 34 148 l10 22
407 -2 408 -3 3 -178 2 -178 -161 -480 -161 -479 40 -118 c39 -112 133 -384
283 -818 l69 -200 -2 -172 -3 -172 -429 0 c-236 0 -432 3 -436 7 -8 10 -9 13
-125 553 -53 245 -101 462 -106 483 l-10 38 -77 -3 -77 -3 -3 -537 c-1 -347
-6 -538 -12 -538 -6 0 -197 0 -425 0 -228 0 -419 0 -425 0 -16 0 -14 2787 3
2793 20 9 831 7 844 -1z m2781 -1242 c2 -937 0 -1256 -9 -1290 -28 -106 -96
-193 -182 -231 l-52 -24 -558 -5 c-306 -3 -562 -3 -567 -2 -6 2 -10 128 -10
347 0 303 2 344 16 349 9 3 123 6 255 6 l239 0 0 1043 c0 574 3 1047 7 1050 3
4 198 6 432 5 l426 -3 3 -1245z"/>
</g>
</svg>
